<svg enable-background="new 0 0 122.88 99.94" viewBox="0 0 122.88 99.94" xmlns="http://www.w3.org/2000/svg"><path d="m4.22 67.36h114.31v-4.67c0-1.13-.22-2.18-.61-3.12-.42-1-1.04-1.89-1.81-2.66-.47-.47-1-.9-1.57-1.28-.58-.39-1.2-.73-1.85-1.02-1.75-.38-3.49-.74-5.22-1.08-1.74-.34-3.49-.66-5.25-.96-.08-.01-.14-.02-.22-.04-.89-.15-1.74-.29-2.55-.42s-1.67-.26-2.57-.4h-.02c-6.12-.78-12.22-1.38-18.31-1.78-6.1-.4-12.17-.6-18.2-.61-3.58 0-7.15.06-10.72.2-3.55.14-7.12.34-10.69.62h-.02c-3.34.31-6.67.7-10.01 1.15-3.33.45-6.67.98-10.03 1.57l-.37.09c-.07.02-.14.03-.2.03-.06.01-.12.01-.18.01-1.57.28-3.18.59-4.84.92-1.61.32-3.22.66-4.82 1.01-.4.22-.78.47-1.14.73-.36.27-.71.56-1.02.87-.67.67-1.2 1.44-1.56 2.3-.34.81-.53 1.71-.53 2.69v5.85zm9.98-67.36h92.99c1.21 0 2.37.24 3.43.68 1.1.46 2.09 1.13 2.92 1.95.83.83 1.5 1.82 1.95 2.92.44 1.06.68 2.22.68 3.43v42.69c.51.3 1.01.63 1.47.99.52.4 1.01.82 1.46 1.27 1.16 1.16 2.1 2.51 2.73 4.03.6 1.43.93 3.02.93 4.74v6.09c.03.1.06.2.08.3v.02c.02.13.03.25.03.37 0 .13-.01.26-.04.39-.02.1-.05.2-.08.3v27.66c0 .58-.24 1.11-.62 1.49s-.91.62-1.49.62h-4.35c-.49 0-.94-.17-1.3-.45s-.63-.68-.74-1.14c-.8-2.3-1.61-4.12-2.48-5.54-.86-1.4-1.78-2.4-2.84-3.11-1.07-.71-2.35-1.16-3.9-1.43-1.58-.28-3.42-.37-5.61-.36l-79.76.1h-.04c-1.57-.03-2.86.17-3.94.59-1.07.42-1.94 1.05-2.66 1.86-.81.9-1.49 2.05-2.11 3.39-.63 1.37-1.2 2.93-1.77 4.64-.14.44-.42.79-.77 1.04-.33.24-.73.38-1.14.4-.03.01-.06.01-.09.01h-5.03c-.58 0-1.11-.24-1.49-.62s-.62-.91-.62-1.49v-36.31c0-1.57.3-3.01.84-4.31.58-1.38 1.43-2.61 2.49-3.67.3-.3.63-.6.98-.88.3-.24.6-.47.92-.68v-43.09c0-1.21.24-2.36.68-3.4.46-1.09 1.13-2.07 1.96-2.89s1.82-1.47 2.91-1.92c1.06-.44 2.21-.68 3.42-.68zm92.99 4.22h-92.99c-.65 0-1.27.13-1.84.36-.59.24-1.11.59-1.55 1.02-.43.42-.78.94-1.02 1.5-.22.55-.34 1.15-.34 1.79v41.06c.3-.1.6-.18.91-.26.49-.13.98-.24 1.47-.32.68-.12 1.42-.25 2.22-.39.6-.1 1.24-.21 1.9-.31v-10.48c0-1.58.32-3.09.89-4.47.6-1.44 1.47-2.73 2.55-3.81s2.37-1.95 3.81-2.55c1.38-.57 2.89-.89 4.47-.89h19.82c1.58 0 3.09.32 4.47.89 1.44.6 2.73 1.47 3.81 2.55s1.95 2.37 2.55 3.81c.57 1.38.89 2.89.89 4.47v6.69c.7-.01 1.4-.01 2.11-.01v-6.68c0-1.58.32-3.09.89-4.47.6-1.44 1.47-2.73 2.55-3.81s2.37-1.95 3.81-2.55c1.38-.57 2.89-.89 4.47-.89h19.82c1.58 0 3.09.32 4.47.89 1.44.6 2.73 1.47 3.81 2.55s1.95 2.37 2.55 3.81c.57 1.38.89 2.89.89 4.47v10.34c.75.11 1.55.24 2.41.38.95.15 1.86.3 2.74.45.45.08.91.17 1.37.28.29.07.57.14.84.22v-40.88c0-.64-.13-1.25-.36-1.81-.24-.58-.6-1.1-1.04-1.55-.44-.44-.97-.8-1.54-1.04-.56-.23-1.17-.36-1.81-.36zm-63.98 41.34c2.01-.15 4.03-.28 6.08-.38 1.89-.1 3.8-.17 5.71-.22v-6.77c0-1.01-.2-1.98-.57-2.86-.38-.92-.94-1.74-1.64-2.44-.69-.69-1.52-1.25-2.44-1.64-.88-.37-1.85-.57-2.86-.57h-19.82c-1.01 0-1.98.2-2.86.57-.92.38-1.74.94-2.44 1.64-.69.69-1.25 1.52-1.64 2.44-.37.88-.57 1.85-.57 2.86v9.81c1.62-.24 3.26-.46 4.94-.68 1.81-.23 3.61-.44 5.39-.64.69-.08 1.43-.17 2.2-.25.72-.08 1.47-.15 2.27-.23 1.36-.13 2.71-.25 4.04-.36 1.37-.09 2.77-.19 4.21-.28zm22.33-.66c1.21.02 2.42.05 3.63.09 1.34.04 2.68.1 4.01.16h.01c2.19.08 4.33.18 6.41.3s4.11.27 6.05.44c2.82.25 5.55.55 8.14.9 2.32.32 4.52.68 6.58 1.08v-9.68c0-1.01-.2-1.98-.57-2.86-.38-.92-.94-1.74-1.64-2.44-.69-.69-1.52-1.25-2.44-1.64-.88-.37-1.85-.57-2.86-.57h-19.81c-1.01 0-1.98.2-2.86.57-.92.38-1.74.94-2.44 1.64-.69.69-1.25 1.52-1.64 2.44-.37.88-.57 1.85-.57 2.86zm53 26.69h-114.32v24.13h1.43c.56-1.58 1.14-3.05 1.79-4.36.7-1.4 1.49-2.64 2.45-3.71 1.14-1.28 2.48-2.27 4.09-2.93 1.61-.65 3.49-.98 5.75-.93l79.69-.1c2.57 0 4.77.12 6.69.49 1.95.37 3.63 1 5.14 2 1.4.93 2.6 2.16 3.68 3.77 1.03 1.54 1.95 3.43 2.83 5.76h.76v-24.12z"/></svg>